<svg width="660" height="514" viewBox="0 0 660 514" fill="none" xmlns="http://www.w3.org/2000/svg">
<g clip-path="url(#clip0_4709_111957)">
<path d="M532.498 97.2367C527.816 84.7278 520.935 73.3745 512.816 62.8166C497.125 42.4137 477.743 22.7837 454.286 11.5654C428.975 -0.515771 400.603 -1.53629 373.154 1.35268C321.55 6.79297 268.558 21.1778 226.829 53.1892C188.042 82.9119 159.64 129.436 160.285 179.299C160.412 186.655 160.953 193.998 161.906 201.292C162.409 204.662 166.123 208.106 169.14 208.301C199.733 210.312 245.529 206.943 254.721 206.943C263.913 206.943 267.147 200.039 269.661 190.044C273.338 175.427 279.754 161.92 288.871 150.604L286.057 150.799C284.076 150.919 275.882 152.548 275.026 151.032C273.848 148.938 282.088 140.526 283.281 139.116C287.783 133.863 292.345 128.843 297.32 124.025C302.46 119.05 307.315 114.09 312.223 109.1C318.976 102.204 326.398 95.676 333.556 89.0801C334.224 88.4648 334.922 87.8494 335.642 87.2266C331.304 86.3541 327.313 84.2399 324.154 81.141C323.898 80.8696 323.725 80.5298 323.658 80.1627C323.59 79.7956 323.63 79.4167 323.773 79.0718C323.916 78.7268 324.155 78.4305 324.462 78.2185C324.77 78.0065 325.132 77.8878 325.505 77.8768C339.109 77.224 349.374 66.471 362.101 62.8692C372.501 59.9277 390.083 62.7416 392.904 75.0629L392.994 75.3555C401.594 76.6312 405.848 84.045 409.3 91.0161C412.564 97.6194 413.735 104.898 414.245 112.207C420.211 111.532 426.176 112.432 430.213 116.709C437.372 124.273 431.939 135.529 424.158 140.384C426.352 144.396 428.224 148.576 429.756 152.885C434.206 165.397 436.013 178.697 435.061 191.943C433.778 209.794 423.662 227.098 413.24 243.839C413.39 247.884 413.502 251.883 413.555 255.785C413.555 257.526 413.555 259.267 413.592 261.001C418.627 264.655 428.945 273.434 433.485 277.194C447.51 288.787 458.923 301.956 471.807 314.548C475.492 307.35 479.612 300.384 484.143 293.687C499.294 270.981 516.62 249.797 525.565 223.624C530.254 209.907 532.701 195.597 534.569 181.265C536.385 167.165 537.991 152.878 538.441 138.665C538.854 124.633 537.451 110.451 532.498 97.2367Z" fill="#437EF7"/>
<path d="M404.685 166.61C404.76 158.559 404.805 151.062 404.775 145.059C409.895 144.63 414.962 143.702 419.902 142.29C429.657 139.604 438.662 125.602 430.213 116.71C423.504 109.626 411.521 111.802 402.974 115.104C402.478 111.239 401.878 107.42 401.12 103.721C398.959 93.1026 395.545 80.4587 385.362 74.7332C368.103 65.0458 346.68 77.0219 333.586 89.0806C326.397 95.669 318.991 102.205 312.237 109.101C307.33 114.091 302.482 119.051 297.335 124.026C292.36 128.843 287.812 133.886 283.295 139.116C282.102 140.497 273.863 148.939 275.041 151.032C275.896 152.533 284.09 150.92 286.071 150.8C290.198 150.545 294.273 150.199 298.37 149.952C301.544 149.757 310.294 149.952 310.294 149.952C310.294 149.952 309.844 157.17 309.859 160.997C309.941 184.034 311.569 207.078 311.569 230.258" stroke="#333333" stroke-width="5" stroke-linecap="round" stroke-linejoin="round"/>
<path d="M412.256 129.557C413.682 129.279 415.16 129.001 416.503 128.701" stroke="#333333" stroke-width="5" stroke-linecap="round" stroke-linejoin="round"/>
<path d="M360.12 126.862V120.687" stroke="#333333" stroke-width="5" stroke-linecap="round" stroke-linejoin="round"/>
<path d="M341.367 126.862V120.687" stroke="#333333" stroke-width="5" stroke-linecap="round" stroke-linejoin="round"/>
<path d="M346.064 152.803C349.066 150.552 356.682 146.305 359.661 150.252" stroke="#333333" stroke-width="5" stroke-linecap="round" stroke-linejoin="round"/>
<path d="M413.308 260.799C418.23 264.318 428.856 273.368 433.485 277.195C448.05 289.201 459.801 302.963 473.301 316.012C489.141 331.312 502.911 349.967 515.72 367.886" stroke="#333333" stroke-width="5" stroke-linecap="round" stroke-linejoin="round"/>
<path d="M299.841 251.93C305.161 257.558 311.539 261.37 318.023 261.37" stroke="#333333" stroke-width="5" stroke-linecap="round" stroke-linejoin="round"/>
<path d="M413.63 311.029C413.63 311.029 413.488 298.123 413.533 290.994C413.6 279.273 413.705 267.485 413.533 255.794C413.21 231.849 410.854 204.587 408.318 180.973C407.837 176.561 404.753 155.197 393.22 159.414C387.419 161.538 388.718 175.87 388.718 180.973C388.718 188.972 388.718 199.845 388.718 207.161C388.718 214.477 387.81 222.567 387.81 222.567" stroke="#333333" stroke-width="5" stroke-linecap="round" stroke-linejoin="round"/>
<path d="M389.168 223.985C389.168 223.985 382.76 219.407 378.827 217.922C372.284 215.46 367.212 212.894 360.413 211.919C356.361 211.333 350.576 211.018 346.621 212.714C343.755 213.945 339.185 219.242 339.597 221.719" stroke="#333333" stroke-width="5" stroke-linecap="round" stroke-linejoin="round"/>
<path d="M370.632 234.941C370.632 234.941 362.378 229.688 357.913 227.827C353.238 225.854 346.357 222.064 341.314 222.612C333.06 223.498 323.013 234.273 322.607 242.797" stroke="#333333" stroke-width="5" stroke-linecap="round" stroke-linejoin="round"/>
<path d="M355.317 248.53C355.317 248.53 348.564 243.653 344.286 242.527C340.249 241.477 336.032 240.156 331.793 240.419C325.79 240.786 321.58 244.065 319.441 249.821C317.093 256.139 316.162 282.47 328.971 279.529C335.244 278.088 332.806 266.277 331.26 262.135C334.336 267.027 340.219 269.639 345.847 267.613C330.915 267.755 340.595 305.214 356.165 303.323" stroke="#333333" stroke-width="5" stroke-linecap="round" stroke-linejoin="round"/>
<path d="M122 410.417C122.525 400.414 125.039 393.833 129.384 384.904C133.616 376.214 145.892 361.522 153.043 355.376C160.195 349.23 171.525 343.37 183.809 341.119C192.063 329.218 214.245 308.942 229.583 298.287C244.92 287.631 263.725 274.275 291.707 257.286C294.086 255.845 299.864 251.891 299.864 251.891C299.864 251.891 302.542 244.387 304.366 240.905C306.257 237.288 307.638 234.257 310.369 230.287C316.627 230.872 327.087 231.893 327.087 231.893" stroke="#333333" stroke-width="5" stroke-linecap="round" stroke-linejoin="round"/>
<path d="M353.614 305.025C352.766 313.692 353.224 329.24 353.224 329.24" stroke="#333333" stroke-width="5" stroke-linecap="round" stroke-linejoin="round"/>
<path d="M380.95 329.256C371.487 331.177 359.143 332.468 350.379 329.256C350.379 338.096 351.129 350.882 351.587 360.202C352.015 369.327 351.137 385.715 353.088 387.509C355.039 389.302 361.755 389.445 366.677 389.137C379.171 388.334 391.62 383.224 402.418 377.769C405.915 376.013 408.961 374.602 412.248 372.591C413.876 371.593 417.501 368.741 418.649 367.173C420.27 364.99 419.894 358.506 419.894 355.587C419.894 349.502 419.144 333.023 418.461 327.028C417.366 317.588 417.343 309.229 414.274 309.229C410.777 318.001 392.115 326.998 380.95 329.256Z" stroke="#333333" stroke-width="5" stroke-linecap="round" stroke-linejoin="round"/>
<path d="M341.292 293.568C339.686 299.391 311.502 339.942 324.529 342.006C326.57 342.328 330.464 338.674 332.408 339.897C335.979 342.148 330.239 351.536 329.278 353.479C326.885 358.349 318.811 372.074 329.436 366.348C331.515 370.603 325.361 383.217 321.647 386.496" stroke="#333333" stroke-width="5" stroke-linecap="round" stroke-linejoin="round"/>
<path d="M237.814 370.475C238.49 373.979 237.154 379.479 234.813 381.993C231.061 386.038 224.795 387.396 215.303 387.508C229.95 388.529 226.123 397.646 220.15 404.272C214.177 410.898 199.68 410.733 199.68 407.439C199.68 400.753 213.067 397.256 219.812 397.001C224.773 396.813 240.073 393.999 235.758 406.381C245.326 397.376 252.072 393.992 263.14 390.75C274.208 387.508 281.344 392.498 282.65 402.824C287.67 396.175 291.917 392.416 299.503 388.649C305.394 385.73 313.168 385.55 319.388 386.495C327.8 387.771 337.323 390.863 345.112 393.947" stroke="#333333" stroke-width="5" stroke-linecap="round" stroke-linejoin="round"/>
<path d="M353.096 387.508C349.442 389.519 346.05 392.813 343.243 395.972C340.039 399.567 338.118 406.32 335.74 410.747C330.704 420.187 326.735 432.621 326.397 443.359C326.195 449.865 329.076 453.999 331.5 459.807C333.653 464.985 332.963 464.52 330.224 468.504C326.172 474.41 325.632 482.679 324.266 489.478C323.223 494.678 322.36 499.81 323.516 505.093C324.161 508.095 325.94 510.811 325.564 514C325.504 513.19 325.849 512.754 326 511.967" stroke="#333333" stroke-width="5" stroke-linecap="round" stroke-linejoin="round"/>
<path d="M418.657 367.172C425.013 381.369 425.756 402.582 427.227 418.903C428.495 432.891 429.928 447.058 430.521 461.097C430.701 465.27 428.315 481.958 431.376 484.359" stroke="#333333" stroke-width="5" stroke-linecap="round" stroke-linejoin="round"/>
<path d="M425.546 391.822C435.413 389.684 443.975 390.021 454.286 390.021C464.273 390.021 471.544 392.813 479.401 399.289C487.077 405.577 491.737 415.609 493.418 425.087C494.469 431.045 497.373 446.75 492.135 450.757C486.897 454.765 483.723 449.084 480.812 441.22" stroke="#333333" stroke-width="5" stroke-linecap="round" stroke-linejoin="round"/>
<path d="M434.633 436.344C437.243 439.585 438.628 443.642 438.542 447.802C438.317 452.005 434.625 462.06 437.432 465.541C445.581 475.732 453.46 451.944 453.482 445.889C453.505 439.833 453.573 435.128 452.417 431.887" stroke="#333333" stroke-width="5" stroke-linecap="round" stroke-linejoin="round"/>
<path d="M448.373 462.254C449.078 465.519 449.941 469.901 454.489 469.976C458.548 470.043 461.445 464.183 462.668 461.129C466.315 452.012 466.322 444.073 465.347 434.212C464.844 429.14 462.885 424.075 461.542 419.768" stroke="#333333" stroke-width="5" stroke-linecap="round" stroke-linejoin="round"/>
<path d="M469.683 410.418C481.141 424.953 485.441 450.098 474.38 467.695C471.379 472.445 461.241 475.041 462.667 461.129" stroke="#333333" stroke-width="5" stroke-linecap="round" stroke-linejoin="round"/>
<path d="M327.695 471.176C317.19 475.543 306.272 481.193 295.196 483.932C288.566 485.499 281.812 486.488 275.011 486.889C268.677 487.332 260.423 489.665 254.188 487.752" stroke="#333333" stroke-width="5" stroke-linecap="round" stroke-linejoin="round"/>
<path d="M360.877 376.402V377.678" stroke="#333333" stroke-width="5" stroke-linecap="round" stroke-linejoin="round"/>
<path d="M404.745 159.294C404.972 159.555 405.265 159.752 405.592 159.865C405.919 159.977 406.271 160.002 406.611 159.936C406.95 159.869 407.267 159.715 407.528 159.488C407.79 159.261 407.987 158.969 408.099 158.642C409.968 153.929 411.376 149.046 412.301 144.062C409.819 144.523 407.314 144.857 404.798 145.06C404.798 149.194 404.783 154.049 404.745 159.294Z" fill="#333333"/>
<path d="M406.2 123.11C406.418 119.951 406.906 116.83 407.161 113.686C409.475 112.983 411.845 112.481 414.244 112.185C413.734 104.876 412.563 97.5973 409.299 90.9939C405.848 84.0229 401.593 76.6091 392.993 75.3334L392.903 75.0408C390.082 62.7195 372.5 59.9055 362.1 62.847C349.344 66.4414 339.108 77.1944 325.504 77.8547C325.131 77.8657 324.769 77.9844 324.462 78.1964C324.154 78.4084 323.915 78.7047 323.772 79.0496C323.629 79.3946 323.589 79.7734 323.657 80.1405C323.725 80.5077 323.897 80.8474 324.153 81.1189C332.362 89.1255 342.808 88.2775 352.735 87.4446C359.204 86.9043 367.39 82.8298 373.634 80.9388C378.991 79.318 382.991 80.6987 387.065 84.6907C384.814 91.9544 384.942 97.8449 388.184 105.154C391.425 112.462 398.494 117.242 402.643 124.048C402.859 124.4 403.183 124.673 403.566 124.826C403.949 124.98 404.371 125.006 404.77 124.901C405.169 124.795 405.524 124.565 405.781 124.242C406.039 123.92 406.186 123.523 406.2 123.11V123.11Z" fill="#333333"/>
<path d="M437.229 441.273C435.653 444.215 433.26 444.823 430.288 445.401" stroke="#333333" stroke-width="5" stroke-linecap="round" stroke-linejoin="round"/>
</g>
<defs>
<clipPath id="clip0_4709_111957">
<rect width="660" height="514" fill="white"/>
</clipPath>
</defs>
</svg>
