<svg width="25" height="26" viewBox="0 0 25 26" fill="none" xmlns="http://www.w3.org/2000/svg">
<path d="M16.3976 7.45097L13.6477 2.66404C13.1371 1.77523 11.8563 1.77098 11.3398 2.65638L8.43802 7.63087C8.05367 8.28976 7.40557 8.7525 6.65759 8.9021L2.69263 9.69509C1.66572 9.90047 1.26558 11.1553 1.984 11.9172L4.85177 14.9588C5.465 15.6092 5.71157 16.5236 5.50844 17.3941L4.2104 22.9572C3.94357 24.1007 5.17836 25.0058 6.18859 24.4072L11.1409 21.4725C11.9791 20.9758 13.0216 20.9758 13.8598 21.4725L18.8121 24.4072C19.8223 25.0058 21.0571 24.1007 20.7903 22.9572L19.4809 17.3454C19.2841 16.5018 19.5092 15.6152 20.0847 14.9678L22.956 11.7376C23.6401 10.9679 23.2307 9.74629 22.221 9.54434L18.1869 8.73752C17.4329 8.58672 16.7806 8.11775 16.3976 7.45097Z" stroke="#437EF7" stroke-width="2" stroke-miterlimit="10"/>
</svg>
